#VRML V2.0 utf8
WorldInfo { title "Anaheim Convention Center — schematic venue exhibit" info [ "SCHEMATIC VENUE EXHIBIT — invented footprints, heights, spacing and placement; simplified exterior massing only. Not a survey, site plan, floor plan, navigation aid, evacuation map, or event-planning tool. No interiors, booths, exhibitor layouts, docks or building systems are modeled." "The 1967 Arena is a stepped stack of boxes, because the VRML export writes boxes only — the real structure is a smooth mid-century dome. Hall footprints, the ballroom level, the plaza, the palm court and the parking structure are invented. ACC North is placed east of the halls with a bridge stub simply to record that the bridge exists." "PR Newswire — ACC North opening, 26 September 2017: https://www.prnewswire.com/news-releases/anaheim-convention-center-officially-opens-acc-north-building-300526058.html" "Visit Anaheim — ACC North by the numbers: https://www.visitanaheim.org/articles/post/acc-north-officially-opens/" "Anaheim Convention Center — 1967 opening and seven expansions: https://sparkoc.com/venue/anaheim-convention-center/" "MD&M West — 41st edition, February 2026; returns February 2027: https://finance.yahoo.com/news/md-m-west-returns-focus-200000600.html" ] }
NavigationInfo { type ["EXAMINE", "ANY"] }
Background { skyColor [0.91 0.92 0.94] }
Viewpoint { description "Overview" position 0 150 230 orientation 1 0 0 -0.55 }
DirectionalLight { direction -1 -2 -1 intensity 0.9 }
# Interpretive ground plane
DEF OBJECT_0 Transform { translation 0 -1 0 rotation 0 1 0 0 children [ Shape { appearance Appearance { material Material { diffuseColor 0.803921568627451 0.8156862745098039 0.7333333333333333 } } geometry Box { size 300 2 230 } } ] }
# Katella Avenue — illustrative strip
DEF OBJECT_1 Transform { translation 0 0.1 86 rotation 0 1 0 0 children [ Shape { appearance Appearance { material Material { diffuseColor 0.7137254901960784 0.7098039215686275 0.6431372549019608 } } geometry Box { size 280 0.3 16 } } ] }
# Arena — podium (1967 original structure)
DEF OBJECT_2 Transform { translation -92 4 34 rotation 0 1 0 0 children [ Shape { appearance Appearance { material Material { diffuseColor 0.8666666666666667 0.8470588235294118 0.7764705882352941 } } geometry Box { size 60 8 60 } } ] }
# Arena dome — stepped approximation, tier 1
DEF OBJECT_3 Transform { translation -92 10 34 rotation 0 1 0 0 children [ Shape { appearance Appearance { material Material { diffuseColor 0.9019607843137255 0.8823529411764706 0.8117647058823529 } } geometry Box { size 52 5 52 } } ] }
# Arena dome — stepped approximation, tier 2
DEF OBJECT_4 Transform { translation -92 14.5 34 rotation 0 1 0 0 children [ Shape { appearance Appearance { material Material { diffuseColor 0.9019607843137255 0.8823529411764706 0.8117647058823529 } } geometry Box { size 40 4.5 40 } } ] }
# Arena dome — stepped approximation, tier 3
DEF OBJECT_5 Transform { translation -92 18 34 rotation 0 1 0 0 children [ Shape { appearance Appearance { material Material { diffuseColor 0.9254901960784314 0.9058823529411765 0.8352941176470589 } } geometry Box { size 26 3 26 } } ] }
# Arena dome — crown
DEF OBJECT_6 Transform { translation -92 20.5 34 rotation 0 1 0 0 children [ Shape { appearance Appearance { material Material { diffuseColor 0.9411764705882353 0.9215686274509803 0.8509803921568627 } } geometry Box { size 12 2.5 12 } } ] }
# Exhibit halls — long exhibition mass
DEF OBJECT_7 Transform { translation 10 11 10 rotation 0 1 0 0 children [ Shape { appearance Appearance { material Material { diffuseColor 0.8627450980392157 0.8431372549019608 0.7725490196078432 } } geometry Box { size 130 22 96 } } ] }
# Ballroom level — representative
DEF OBJECT_8 Transform { translation 10 24 -14 rotation 0 1 0 0 children [ Shape { appearance Appearance { material Material { diffuseColor 0.8862745098039215 0.8666666666666667 0.796078431372549 } } geometry Box { size 110 6 48 } } ] }
# Grand Plaza (2013) — outdoor event space
DEF OBJECT_9 Transform { translation -38 0.2 66 rotation 0 1 0 0 children [ Shape { appearance Appearance { material Material { diffuseColor 0.788235294117647 0.803921568627451 0.7137254901960784 } } geometry Box { size 90 0.5 34 } } ] }
# ACC North — lower level (2017 expansion)
DEF OBJECT_10 Transform { translation 104 7 -30 rotation 0 1 0 0 children [ Shape { appearance Appearance { material Material { diffuseColor 0.8117647058823529 0.8823529411764706 0.9019607843137255 } } geometry Box { size 58 14 74 } } ] }
# ACC North — upper column-free level
DEF OBJECT_11 Transform { translation 104 19 -30 rotation 0 1 0 0 children [ Shape { appearance Appearance { material Material { diffuseColor 0.8627450980392157 0.9176470588235294 0.9372549019607843 } } geometry Box { size 58 10 74 } } ] }
# ACC North — balcony over Katella
DEF OBJECT_12 Transform { translation 104 24.6 10 rotation 0 1 0 0 children [ Shape { appearance Appearance { material Material { diffuseColor 0.7607843137254902 0.8235294117647058 0.8470588235294118 } } geometry Box { size 50 1.2 10 } } ] }
# Pedestrian bridge — climate-controlled link
DEF OBJECT_13 Transform { translation 88 16 -18 rotation 0 1 0 0 children [ Shape { appearance Appearance { material Material { diffuseColor 0.803921568627451 0.7803921568627451 0.7137254901960784 } } geometry Box { size 34 5 9 } } ] }
# Parking structure — representative
DEF OBJECT_14 Transform { translation 116 12 54 rotation 0 1 0 0 children [ Shape { appearance Appearance { material Material { diffuseColor 0.7647058823529411 0.7490196078431373 0.6823529411764706 } } geometry Box { size 50 24 44 } } ] }
# Palm court — illustrative
DEF OBJECT_15 Transform { translation -40 0.2 -56 rotation 0 1 0 0 children [ Shape { appearance Appearance { material Material { diffuseColor 0.7490196078431373 0.7803921568627451 0.6705882352941176 } } geometry Box { size 120 0.4 22 } } ] }
