#VRML V2.0 utf8
WorldInfo { title "Jacob K. Javits Convention Center — schematic venue exhibit" info [ "SCHEMATIC VENUE EXHIBIT — invented footprints, heights, spacing and placement; simplified exterior massing only. Not a survey, site plan, floor plan, navigation aid, evacuation map, or event-planning tool. No interiors, booths, exhibitor layouts, docks or building systems are modeled." "A glazed shed, a lobby mass, a later north expansion with a roof deck, a truck apron and the river are all invented forms at invented spacings. The famous space-frame is not modelled; nothing here reproduces the real elevation, bay spacing, or block geometry." "MD&M East — Javits Center, 19–20 May 2027: https://www.mdmeast.com/" "MD&DI events — MD&M East, 20–22 May 2025: https://www.mddionline.com/events/md-m-east" "MD&DI — IME events unify under the MD&M brand: https://www.mddionline.com/manufacturing/informa-markets-engineering-advanced-manufacturing-events-unify-to-md-m-brand" "Convention calendar — IME/MD&M East at Javits, December 2021: https://conventioncalendar.com/us/ny/new-york-city/jacob-javits-center/mdm-east-399792" ] }
NavigationInfo { type ["EXAMINE", "ANY"] }
Background { skyColor [0.91 0.92 0.94] }
Viewpoint { description "Overview" position 0 150 230 orientation 1 0 0 -0.55 }
DirectionalLight { direction -1 -2 -1 intensity 0.9 }
# Interpretive ground plane
DEF OBJECT_0 Transform { translation 0 -1 0 rotation 0 1 0 0 children [ Shape { appearance Appearance { material Material { diffuseColor 0.796078431372549 0.803921568627451 0.7607843137254902 } } geometry Box { size 300 2 200 } } ] }
# Hudson River — symbolic strip
DEF OBJECT_1 Transform { translation 0 0.2 -78 rotation 0 1 0 0 children [ Shape { appearance Appearance { material Material { diffuseColor 0.4980392156862745 0.6039215686274509 0.6431372549019608 } } geometry Box { size 290 0.5 40 } } ] }
# Eleventh Avenue — illustrative strip
DEF OBJECT_2 Transform { translation 0 0.1 74 rotation 0 1 0 0 children [ Shape { appearance Appearance { material Material { diffuseColor 0.7098039215686275 0.7058823529411765 0.6588235294117647 } } geometry Box { size 290 0.3 16 } } ] }
# Main exhibition shed — massing
DEF OBJECT_3 Transform { translation -20 16 0 rotation 0 1 0 0 children [ Shape { appearance Appearance { material Material { diffuseColor 0.7254901960784313 0.7764705882352941 0.8 } } geometry Box { size 150 32 88 } } ] }
# Crystal Palace lobby — glazed mass
DEF OBJECT_4 Transform { translation -108 21 0 rotation 0 1 0 0 children [ Shape { appearance Appearance { material Material { diffuseColor 0.8117647058823529 0.8862745098039215 0.9098039215686274 } } geometry Box { size 26 42 64 } } ] }
# North expansion — later addition massing
DEF OBJECT_5 Transform { translation 82 18 -10 rotation 0 1 0 0 children [ Shape { appearance Appearance { material Material { diffuseColor 0.7647058823529411 0.807843137254902 0.8313725490196079 } } geometry Box { size 54 36 70 } } ] }
# Rooftop terrace deck — interpretive
DEF OBJECT_6 Transform { translation 82 36.5 -10 rotation 0 1 0 0 children [ Shape { appearance Appearance { material Material { diffuseColor 0.6823529411764706 0.7294117647058823 0.7529411764705882 } } geometry Box { size 44 1.2 56 } } ] }
# Truck marshalling apron — illustrative
DEF OBJECT_7 Transform { translation 0 0.2 52 rotation 0 1 0 0 children [ Shape { appearance Appearance { material Material { diffuseColor 0.6901960784313725 0.6823529411764706 0.6352941176470588 } } geometry Box { size 220 0.4 26 } } ] }
# Neighbouring block — context massing
DEF OBJECT_8 Transform { translation -140 30 60 rotation 0 1 0 0 children [ Shape { appearance Appearance { material Material { diffuseColor 0.7529411764705882 0.7333333333333333 0.6901960784313725 } } geometry Box { size 40 60 40 } } ] }
