#VRML V2.0 utf8
WorldInfo { title "Oak Ridge — historical schematic" info [ "SCHEMATIC HISTORICAL EXHIBIT — invented placement and simplified exterior forms; not a survey, navigational map, current facility plan, blast/dose simulator, or engineering model. No interiors, weapon assemblies, or operational systems are modeled." "The model shows symbolic ridges, a town block, Y-12 calutron buildings, the U-shaped idea of K-25, S-50, and X-10. Positions, spacing, footprints, ridge forms, and river course are invented; no process equipment, cascades, calutrons, reactor internals, or modern cleanup geometry is modeled." "DOE OREM — Oak Ridge history: https://www.energy.gov/orem/history" "DOE — X-10 Graphite Reactor: https://www.energy.gov/management/x-10-graphite-reactor" "DOE EM — Oak Ridge overview: https://www.energy.gov/em/oak-ridge" "Nuclear Museum — Oak Ridge, TN: https://ahf.nuclearmuseum.org/ahf/location/oak-ridge-tn/" ] }
NavigationInfo { type ["EXAMINE", "ANY"] }
Background { skyColor [0.94 0.93 0.89] }
Viewpoint { description "Overview" position 0 105 140 orientation 1 0 0 -0.55 }
DirectionalLight { direction -1 -2 -1 intensity 0.9 }
# Interpretive ground plane
DEF OBJECT_0 Transform { translation 0 -1 0 rotation 0 1 0 0 children [ Shape { appearance Appearance { material Material { diffuseColor 0.7254901960784313 0.6784313725490196 0.5294117647058824 } } geometry Box { size 130 2 100 } } ] }
# Black Oak Ridge — symbolic ridge
DEF OBJECT_1 Transform { translation -7 3 -29 rotation 0 1 0 0 children [ Shape { appearance Appearance { material Material { diffuseColor 0.5607843137254902 0.5450980392156862 0.42745098039215684 } } geometry Box { size 118 8 14 } } ] }
# Oak Ridge town — representative
DEF OBJECT_2 Transform { translation 28 7 -7 rotation 0 1 0 0 children [ Shape { appearance Appearance { material Material { diffuseColor 0.8313725490196079 0.7725490196078432 0.6274509803921569 } } geometry Box { size 32 6 18 } } ] }
# Y-12 calutron building — representative
DEF OBJECT_3 Transform { translation -34 8 -8 rotation 0 1 0 0 children [ Shape { appearance Appearance { material Material { diffuseColor 0.796078431372549 0.7490196078431373 0.615686274509804 } } geometry Box { size 38 10 12 } } ] }
# Y-12 beta building — representative
DEF OBJECT_4 Transform { translation -34 8 7 rotation 0 1 0 0 children [ Shape { appearance Appearance { material Material { diffuseColor 0.8470588235294118 0.8 0.6901960784313725 } } geometry Box { size 32 10 10 } } ] }
# K-25 gaseous diffusion north arm
DEF OBJECT_5 Transform { translation 16 8 6 rotation 0 1 0 0 children [ Shape { appearance Appearance { material Material { diffuseColor 0.7490196078431373 0.7254901960784313 0.6588235294117647 } } geometry Box { size 46 10 9 } } ] }
# K-25 gaseous diffusion west arm
DEF OBJECT_6 Transform { translation -11 8 19 rotation 0 1 0 0 children [ Shape { appearance Appearance { material Material { diffuseColor 0.7490196078431373 0.7254901960784313 0.6588235294117647 } } geometry Box { size 9 10 28 } } ] }
# K-25 gaseous diffusion east arm
DEF OBJECT_7 Transform { translation 43 8 19 rotation 0 1 0 0 children [ Shape { appearance Appearance { material Material { diffuseColor 0.7490196078431373 0.7254901960784313 0.6588235294117647 } } geometry Box { size 9 10 28 } } ] }
# X-10 graphite reactor — exterior massing
DEF OBJECT_8 Transform { translation 4 10 -16 rotation 0 1 0 0 children [ Shape { appearance Appearance { material Material { diffuseColor 0.6666666666666666 0.6352941176470588 0.5607843137254902 } } geometry Box { size 16 20 16 } } ] }
# X-10 chemical separation — representative
DEF OBJECT_9 Transform { translation 22 7 -17 rotation 0 1 0 0 children [ Shape { appearance Appearance { material Material { diffuseColor 0.8117647058823529 0.7686274509803922 0.6666666666666666 } } geometry Box { size 20 12 13 } } ] }
# S-50 thermal diffusion — symbolic strip
DEF OBJECT_10 Transform { translation -6 4 24 rotation 0 1 0 0 children [ Shape { appearance Appearance { material Material { diffuseColor 0.8431372549019608 0.8117647058823529 0.7294117647058823 } } geometry Box { size 40 6 6 } } ] }
# Clinch River — symbolic strip
DEF OBJECT_11 Transform { translation 0 0.2 35 rotation 0 1 0 0 children [ Shape { appearance Appearance { material Material { diffuseColor 0.43529411764705883 0.6039215686274509 0.6274509803921569 } } geometry Box { size 128 0.5 9 } } ] }
