#VRML V2.0 utf8
WorldInfo { title "Trinity Test Site — historical schematic" info [ "SCHEMATIC HISTORICAL EXHIBIT — invented placement and simplified exterior forms; not a survey, navigational map, current facility plan, or engineering model. No interiors or operational systems are modeled." "Tower height is represented as 30.48 model units (100 feet at one nominal metre per unit). Bracing and footprint are illustrative. The ranch house is a displaced inset: its actual location was about two miles south, not beside the tower. No device or assembly detail is included." "DOE — Trinity site, date, tower, and ranch house: https://www.energy.gov/lm/trinity-site-worlds-first-nuclear-explosion" "NCI — Trinity fallout study, community summary: https://dceg.cancer.gov/research/how-we-study/exposure-assessment/trinity/community-summary" ] }
NavigationInfo { type ["EXAMINE", "ANY"] }
Background { skyColor [0.94 0.93 0.89] }
Viewpoint { description "Overview" position 0 105 140 orientation 1 0 0 -0.55 }
DirectionalLight { direction -1 -2 -1 intensity 0.9 }
# Interpretive ground plane
DEF OBJECT_0 Transform { translation 0 -1 0 rotation 0 1 0 0 children [ Shape { appearance Appearance { material Material { diffuseColor 0.796078431372549 0.7372549019607844 0.5843137254901961 } } geometry Box { size 130 2 100 } } ] }
# Tower leg
DEF OBJECT_1 Transform { translation -3 15.24 -3 rotation 1 0 0 0 children [ Shape { appearance Appearance { material Material { diffuseColor 0.4117647058823529 0.4235294117647059 0.38823529411764707 } } geometry Box { size 0.4 30.48 0.4 } } ] }
# Tower leg
DEF OBJECT_2 Transform { translation -3 15.24 3 rotation 1 0 0 0 children [ Shape { appearance Appearance { material Material { diffuseColor 0.4117647058823529 0.4235294117647059 0.38823529411764707 } } geometry Box { size 0.4 30.48 0.4 } } ] }
# Tower leg
DEF OBJECT_3 Transform { translation 3 15.24 -3 rotation 1 0 0 0 children [ Shape { appearance Appearance { material Material { diffuseColor 0.4117647058823529 0.4235294117647059 0.38823529411764707 } } geometry Box { size 0.4 30.48 0.4 } } ] }
# Tower leg
DEF OBJECT_4 Transform { translation 3 15.24 3 rotation 1 0 0 0 children [ Shape { appearance Appearance { material Material { diffuseColor 0.4117647058823529 0.4235294117647059 0.38823529411764707 } } geometry Box { size 0.4 30.48 0.4 } } ] }
# Tower bracing
DEF OBJECT_5 Transform { translation 0 3.048 -3 rotation 0 0 -1 0.7774618220899823 children [ Shape { appearance Appearance { material Material { diffuseColor 0.4117647058823529 0.4235294117647059 0.38823529411764707 } } geometry Box { size 0.4 8.55343299500265 0.4 } } ] }
# Tower bracing
DEF OBJECT_6 Transform { translation 0 3.048 -3 rotation 0 0 1 0.7774618220899823 children [ Shape { appearance Appearance { material Material { diffuseColor 0.4117647058823529 0.4235294117647059 0.38823529411764707 } } geometry Box { size 0.4 8.55343299500265 0.4 } } ] }
# Tower bracing
DEF OBJECT_7 Transform { translation 0 3.048 3 rotation 0 0 -1 0.7774618220899823 children [ Shape { appearance Appearance { material Material { diffuseColor 0.4117647058823529 0.4235294117647059 0.38823529411764707 } } geometry Box { size 0.4 8.55343299500265 0.4 } } ] }
# Tower bracing
DEF OBJECT_8 Transform { translation 0 3.048 3 rotation 0 0 1 0.7774618220899823 children [ Shape { appearance Appearance { material Material { diffuseColor 0.4117647058823529 0.4235294117647059 0.38823529411764707 } } geometry Box { size 0.4 8.55343299500265 0.4 } } ] }
# Tower side brace
DEF OBJECT_9 Transform { translation -3 3.048 0 rotation 1 0 0 0.7774618220899823 children [ Shape { appearance Appearance { material Material { diffuseColor 0.4117647058823529 0.4235294117647059 0.38823529411764707 } } geometry Box { size 0.4 8.55343299500265 0.4 } } ] }
# Tower side brace
DEF OBJECT_10 Transform { translation 3 3.048 0 rotation 1 0 0 0.7774618220899823 children [ Shape { appearance Appearance { material Material { diffuseColor 0.4117647058823529 0.4235294117647059 0.38823529411764707 } } geometry Box { size 0.4 8.55343299500265 0.4 } } ] }
# Tower bracing
DEF OBJECT_11 Transform { translation 0 9.144 -3 rotation 0 0 -1 0.7774618220899823 children [ Shape { appearance Appearance { material Material { diffuseColor 0.4117647058823529 0.4235294117647059 0.38823529411764707 } } geometry Box { size 0.4 8.55343299500265 0.4 } } ] }
# Tower bracing
DEF OBJECT_12 Transform { translation 0 9.144 -3 rotation 0 0 1 0.7774618220899823 children [ Shape { appearance Appearance { material Material { diffuseColor 0.4117647058823529 0.4235294117647059 0.38823529411764707 } } geometry Box { size 0.4 8.55343299500265 0.4 } } ] }
# Tower bracing
DEF OBJECT_13 Transform { translation 0 9.144 3 rotation 0 0 -1 0.7774618220899823 children [ Shape { appearance Appearance { material Material { diffuseColor 0.4117647058823529 0.4235294117647059 0.38823529411764707 } } geometry Box { size 0.4 8.55343299500265 0.4 } } ] }
# Tower bracing
DEF OBJECT_14 Transform { translation 0 9.144 3 rotation 0 0 1 0.7774618220899823 children [ Shape { appearance Appearance { material Material { diffuseColor 0.4117647058823529 0.4235294117647059 0.38823529411764707 } } geometry Box { size 0.4 8.55343299500265 0.4 } } ] }
# Tower side brace
DEF OBJECT_15 Transform { translation -3 9.144 0 rotation 1 0 0 0.7774618220899823 children [ Shape { appearance Appearance { material Material { diffuseColor 0.4117647058823529 0.4235294117647059 0.38823529411764707 } } geometry Box { size 0.4 8.55343299500265 0.4 } } ] }
# Tower side brace
DEF OBJECT_16 Transform { translation 3 9.144 0 rotation 1 0 0 0.7774618220899823 children [ Shape { appearance Appearance { material Material { diffuseColor 0.4117647058823529 0.4235294117647059 0.38823529411764707 } } geometry Box { size 0.4 8.55343299500265 0.4 } } ] }
# Tower bracing
DEF OBJECT_17 Transform { translation 0 15.24 -3 rotation 0 0 -1 0.7774618220899823 children [ Shape { appearance Appearance { material Material { diffuseColor 0.4117647058823529 0.4235294117647059 0.38823529411764707 } } geometry Box { size 0.4 8.55343299500265 0.4 } } ] }
# Tower bracing
DEF OBJECT_18 Transform { translation 0 15.24 -3 rotation 0 0 1 0.7774618220899823 children [ Shape { appearance Appearance { material Material { diffuseColor 0.4117647058823529 0.4235294117647059 0.38823529411764707 } } geometry Box { size 0.4 8.55343299500265 0.4 } } ] }
# Tower bracing
DEF OBJECT_19 Transform { translation 0 15.24 3 rotation 0 0 -1 0.7774618220899823 children [ Shape { appearance Appearance { material Material { diffuseColor 0.4117647058823529 0.4235294117647059 0.38823529411764707 } } geometry Box { size 0.4 8.55343299500265 0.4 } } ] }
# Tower bracing
DEF OBJECT_20 Transform { translation 0 15.24 3 rotation 0 0 1 0.7774618220899823 children [ Shape { appearance Appearance { material Material { diffuseColor 0.4117647058823529 0.4235294117647059 0.38823529411764707 } } geometry Box { size 0.4 8.55343299500265 0.4 } } ] }
# Tower side brace
DEF OBJECT_21 Transform { translation -3 15.24 0 rotation 1 0 0 0.7774618220899823 children [ Shape { appearance Appearance { material Material { diffuseColor 0.4117647058823529 0.4235294117647059 0.38823529411764707 } } geometry Box { size 0.4 8.55343299500265 0.4 } } ] }
# Tower side brace
DEF OBJECT_22 Transform { translation 3 15.24 0 rotation 1 0 0 0.7774618220899823 children [ Shape { appearance Appearance { material Material { diffuseColor 0.4117647058823529 0.4235294117647059 0.38823529411764707 } } geometry Box { size 0.4 8.55343299500265 0.4 } } ] }
# Tower bracing
DEF OBJECT_23 Transform { translation 0 21.336 -3 rotation 0 0 -1 0.7774618220899823 children [ Shape { appearance Appearance { material Material { diffuseColor 0.4117647058823529 0.4235294117647059 0.38823529411764707 } } geometry Box { size 0.4 8.55343299500265 0.4 } } ] }
# Tower bracing
DEF OBJECT_24 Transform { translation 0 21.336 -3 rotation 0 0 1 0.7774618220899823 children [ Shape { appearance Appearance { material Material { diffuseColor 0.4117647058823529 0.4235294117647059 0.38823529411764707 } } geometry Box { size 0.4 8.55343299500265 0.4 } } ] }
# Tower bracing
DEF OBJECT_25 Transform { translation 0 21.336 3 rotation 0 0 -1 0.7774618220899823 children [ Shape { appearance Appearance { material Material { diffuseColor 0.4117647058823529 0.4235294117647059 0.38823529411764707 } } geometry Box { size 0.4 8.55343299500265 0.4 } } ] }
# Tower bracing
DEF OBJECT_26 Transform { translation 0 21.336 3 rotation 0 0 1 0.7774618220899823 children [ Shape { appearance Appearance { material Material { diffuseColor 0.4117647058823529 0.4235294117647059 0.38823529411764707 } } geometry Box { size 0.4 8.55343299500265 0.4 } } ] }
# Tower side brace
DEF OBJECT_27 Transform { translation -3 21.336 0 rotation 1 0 0 0.7774618220899823 children [ Shape { appearance Appearance { material Material { diffuseColor 0.4117647058823529 0.4235294117647059 0.38823529411764707 } } geometry Box { size 0.4 8.55343299500265 0.4 } } ] }
# Tower side brace
DEF OBJECT_28 Transform { translation 3 21.336 0 rotation 1 0 0 0.7774618220899823 children [ Shape { appearance Appearance { material Material { diffuseColor 0.4117647058823529 0.4235294117647059 0.38823529411764707 } } geometry Box { size 0.4 8.55343299500265 0.4 } } ] }
# Tower bracing
DEF OBJECT_29 Transform { translation 0 27.432000000000002 -3 rotation 0 0 -1 0.7774618220899823 children [ Shape { appearance Appearance { material Material { diffuseColor 0.4117647058823529 0.4235294117647059 0.38823529411764707 } } geometry Box { size 0.4 8.55343299500265 0.4 } } ] }
# Tower bracing
DEF OBJECT_30 Transform { translation 0 27.432000000000002 -3 rotation 0 0 1 0.7774618220899823 children [ Shape { appearance Appearance { material Material { diffuseColor 0.4117647058823529 0.4235294117647059 0.38823529411764707 } } geometry Box { size 0.4 8.55343299500265 0.4 } } ] }
# Tower bracing
DEF OBJECT_31 Transform { translation 0 27.432000000000002 3 rotation 0 0 -1 0.7774618220899823 children [ Shape { appearance Appearance { material Material { diffuseColor 0.4117647058823529 0.4235294117647059 0.38823529411764707 } } geometry Box { size 0.4 8.55343299500265 0.4 } } ] }
# Tower bracing
DEF OBJECT_32 Transform { translation 0 27.432000000000002 3 rotation 0 0 1 0.7774618220899823 children [ Shape { appearance Appearance { material Material { diffuseColor 0.4117647058823529 0.4235294117647059 0.38823529411764707 } } geometry Box { size 0.4 8.55343299500265 0.4 } } ] }
# Tower side brace
DEF OBJECT_33 Transform { translation -3 27.432000000000002 0 rotation 1 0 0 0.7774618220899823 children [ Shape { appearance Appearance { material Material { diffuseColor 0.4117647058823529 0.4235294117647059 0.38823529411764707 } } geometry Box { size 0.4 8.55343299500265 0.4 } } ] }
# Tower side brace
DEF OBJECT_34 Transform { translation 3 27.432000000000002 0 rotation 1 0 0 0.7774618220899823 children [ Shape { appearance Appearance { material Material { diffuseColor 0.4117647058823529 0.4235294117647059 0.38823529411764707 } } geometry Box { size 0.4 8.55343299500265 0.4 } } ] }
# Tower platform — no device modeled
DEF OBJECT_35 Transform { translation 0 30.48 0 rotation 0 1 0 0 children [ Shape { appearance Appearance { material Material { diffuseColor 0.47058823529411764 0.4588235294117647 0.40784313725490196 } } geometry Box { size 8 0.6 8 } } ] }
# Ground-zero marker — interpretive tile
DEF OBJECT_36 Transform { translation 0 0.1 0 rotation 0 1 0 0 children [ Shape { appearance Appearance { material Material { diffuseColor 0.6705882352941176 0.4745098039215686 0.34901960784313724 } } geometry Box { size 13 0.2 13 } } ] }
# McDonald ranch house — displaced inset
DEF OBJECT_37 Transform { translation 37 3 26 rotation 0 1 0 0 children [ Shape { appearance Appearance { material Material { diffuseColor 0.8470588235294118 0.788235294117647 0.6549019607843137 } } geometry Box { size 13 6 9 } } ] }
